<svg xmlns="http://www.w3.org/2000/svg" viewBox="0 0 91.59 86.64"><defs><style>.cls-1{fill:#0f1011;}</style></defs><g id="图层_2" data-name="图层 2"><g id="图层_1-2" data-name="图层 1"><path class="cls-1" d="M65.12,57.71,61.61,82.59A53,53,0,0,0,89.06,54.73H68.58A3.47,3.47,0,0,0,65.12,57.71Z"/><path class="cls-1" d="M43,54.73H25.58A30.89,30.89,0,0,1,56.42,28.07H91.59C87.73,11.67,73.56,0,55,0H14.72a3.45,3.45,0,0,0-3.45,3L0,82.4a3.75,3.75,0,0,0,3.7,4.24h39L46.67,59A3.76,3.76,0,0,0,43,54.73Z"/></g></g></svg>