<svg width="40" height="40" viewBox="0 0 40 40" fill="none" xmlns="http://www.w3.org/2000/svg">
<path fill-rule="evenodd" clip-rule="evenodd" d="M30.5951 10.1118L34.4959 6.21101L33.7887 5.50391L29.888 9.4047C26.9419 6.82262 22.4567 6.93663 19.6466 9.74673L17.1717 12.2216L27.7783 22.8282L30.2532 20.3533C33.0634 17.5432 33.1773 13.0578 30.5951 10.1118ZM27.7783 21.414L29.5461 19.6462C32.0845 17.1078 32.0845 12.9922 29.5461 10.4538C27.0077 7.91543 22.8921 7.91543 20.3537 10.4538L18.5859 12.2216L27.7783 21.414Z" fill="black"/>
<path fill-rule="evenodd" clip-rule="evenodd" d="M15.7576 20.7069L19.2931 24.2424L22.4751 21.0605L23.1822 21.7676L20.0002 24.9496L22.8286 27.7779L20.3537 30.2528C17.5435 33.063 13.0581 33.1769 10.1121 30.5946L6.21156 34.4951L5.50446 33.788L9.40501 29.8875C6.82301 26.9414 6.93704 22.4563 9.74711 19.6462L12.222 17.1713L15.0504 19.9998L18.2324 16.8178L18.9395 17.5249L15.7576 20.7069ZM10.4542 20.3533L12.222 18.5855L21.4144 27.7779L19.6466 29.5457C17.1082 32.0841 12.9926 32.0841 10.4542 29.5457C7.91581 27.0073 7.91581 22.8917 10.4542 20.3533Z" fill="black"/>
</svg>
