<svg width="97" height="96" xmlns="http://www.w3.org/2000/svg" xmlns:xlink="http://www.w3.org/1999/xlink" overflow="hidden"><defs><clipPath id="clip0"><rect x="941" y="332" width="97" height="96"/></clipPath><clipPath id="clip1"><rect x="942" y="332" width="96" height="96"/></clipPath><clipPath id="clip2"><rect x="942" y="332" width="96" height="96"/></clipPath><clipPath id="clip3"><rect x="942" y="332" width="96" height="96"/></clipPath></defs><g clip-path="url(#clip0)" transform="translate(-941 -332)"><g clip-path="url(#clip1)"><g clip-path="url(#clip2)"><g clip-path="url(#clip3)"><path d="M970 374 1010 374 1010 376 970 376Z" fill="#000000" fill-rule="nonzero" fill-opacity="1"/><path d="M970 366 989 366 989 368 970 368Z" fill="#000000" fill-rule="nonzero" fill-opacity="1"/><path d="M970 382 1010 382 1010 384 970 384Z" fill="#000000" fill-rule="nonzero" fill-opacity="1"/><path d="M970 390 1010 390 1010 392 970 392Z" fill="#000000" fill-rule="nonzero" fill-opacity="1"/><path d="M970 398 1010 398 1010 400 970 400Z" fill="#000000" fill-rule="nonzero" fill-opacity="1"/><path d="M970 406 1010 406 1010 408 970 408Z" fill="#000000" fill-rule="nonzero" fill-opacity="1"/><path d="M960 340 960 420 1020 420 1020 361.586 998.414 340ZM999.017 343.431 1016.57 360.983C1016.57 360.987 1016.57 360.993 1016.57 360.997 1016.57 360.999 1016.56 361 1016.56 361L999 361 999 343.438C999 343.432 999.005 343.428 999.01 343.428 999.013 343.428 999.015 343.429 999.017 343.431ZM962 418 962 342 997 342 997 363 1018 363 1018 418Z" fill="#000000" fill-rule="nonzero" fill-opacity="1"/></g></g></g></g></svg>