<svg width="98" height="96" xmlns="http://www.w3.org/2000/svg" xmlns:xlink="http://www.w3.org/1999/xlink" overflow="hidden"><defs><clipPath id="clip0"><rect x="942" y="236" width="98" height="96"/></clipPath><clipPath id="clip1"><rect x="943" y="236" width="96" height="96"/></clipPath><clipPath id="clip2"><rect x="943" y="236" width="96" height="96"/></clipPath><clipPath id="clip3"><rect x="943" y="236" width="96" height="96"/></clipPath></defs><g clip-path="url(#clip0)" transform="translate(-942 -236)"><g clip-path="url(#clip1)"><g clip-path="url(#clip2)"><g clip-path="url(#clip3)"><path d="M999.969 260.233C999.541 259.552 998.826 259.104 998.027 259.016 997.265 258.927 996.504 259.191 995.96 259.732L959.588 294.832 954.067 300.121 960.458 311.196 967.776 308.917 977.527 306.151 977.465 306.208 981.949 311.153 996.076 307.253 997.376 300.57 997.276 300.551 1016.37 295.136 1016.48 295.097C1017.25 294.771 1017.83 294.128 1018.09 293.334 1018.32 292.622 1018.23 291.843 1017.84 291.203ZM956.584 300.477 960.084 297.127 965.996 307.374 961.396 308.808ZM994.35 305.648 982.6 308.894 979.58 305.564 995.23 301.125ZM1016.18 292.728C1016.12 292.945 1015.96 293.125 1015.76 293.228L967.96 306.785 961.565 295.7 997.365 261.16C997.48 261.041 997.644 260.982 997.809 261 997.991 261.019 998.156 261.117 998.26 261.267L1016.14 292.233C1016.22 292.383 1016.24 292.564 1016.18 292.728Z" fill="#000000" fill-rule="nonzero" fill-opacity="1"/><path d="M1017.25 269.839 1027.22 264.229 1028.2 265.972 1018.23 271.581Z" fill="#000000" fill-rule="nonzero" fill-opacity="1"/><path d="M1018.75 278.84 1019.29 276.914 1030.31 280.003 1029.77 281.929Z" fill="#000000" fill-rule="nonzero" fill-opacity="1"/><path d="M1011.27 265.757 1014.36 254.741 1016.29 255.281 1013.2 266.297Z" fill="#000000" fill-rule="nonzero" fill-opacity="1"/></g></g></g></g></svg>