<svg width="98" height="96" xmlns="http://www.w3.org/2000/svg" xmlns:xlink="http://www.w3.org/1999/xlink" overflow="hidden"><defs><clipPath id="clip0"><rect x="958" y="484" width="98" height="96"/></clipPath><clipPath id="clip1"><rect x="959" y="484" width="96" height="96"/></clipPath><clipPath id="clip2"><rect x="959" y="484" width="96" height="96"/></clipPath><clipPath id="clip3"><rect x="959" y="484" width="96" height="96"/></clipPath></defs><g clip-path="url(#clip0)" transform="translate(-958 -484)"><g clip-path="url(#clip1)"><g clip-path="url(#clip2)"><g clip-path="url(#clip3)"><path d="M1037.52 531.142C1037.53 527.357 1036.79 523.609 1035.35 520.109 1035.14 519.598 1034.55 519.355 1034.04 519.565 1033.53 519.775 1033.29 520.36 1033.5 520.871 1039.16 534.675 1032.56 550.457 1018.76 556.121 1017.27 556.731 1015.73 557.207 1014.16 557.544 1014.15 557.544 1014.14 557.544 1014.15 557.529L1018.14 550.479C1018.44 550.019 1018.32 549.398 1017.86 549.093 1017.4 548.788 1016.78 548.914 1016.47 549.374 1016.44 549.414 1016.42 549.456 1016.4 549.5L1011.33 558.463C1011.06 558.944 1011.23 559.554 1011.71 559.826 1011.71 559.826 1011.71 559.826 1011.71 559.826L1020.66 564.885C1021.13 565.163 1021.75 565.001 1022.02 564.524 1022.3 564.047 1022.14 563.435 1021.66 563.157 1021.66 563.152 1021.65 563.148 1021.64 563.144L1015.06 559.422C1015.05 559.415 1015.05 559.407 1015.06 559.404 1028.19 556.321 1037.48 544.628 1037.52 531.142Z" fill="#000000" fill-rule="nonzero" fill-opacity="1"/><path d="M1004.93 557.9C1001.44 557.433 998.077 556.284 995.029 554.516 984.039 548.123 978.969 534.951 982.837 522.839 982.837 522.827 982.849 522.826 982.855 522.839L986.95 529.815C987.23 530.291 987.843 530.45 988.32 530.169 988.796 529.889 988.954 529.276 988.674 528.8L983.462 519.919C983.182 519.443 982.57 519.283 982.093 519.563 982.093 519.563 982.093 519.563 982.093 519.563L973.229 524.763C972.753 525.043 972.593 525.656 972.873 526.132 973.153 526.608 973.766 526.768 974.242 526.488L980.776 522.653C980.788 522.646 980.794 522.653 980.79 522.664 976.118 537.997 984.761 554.214 1000.09 558.886 1001.59 559.342 1003.12 559.676 1004.67 559.885 1004.71 559.891 1004.76 559.894 1004.8 559.894 1005.36 559.897 1005.81 559.451 1005.81 558.899 1005.81 558.393 1005.44 557.966 1004.93 557.902Z" fill="#000000" fill-rule="nonzero" fill-opacity="1"/><path d="M1028.53 513.014C1028.54 513.023 1028.53 513.031 1028.52 513.031L1020.48 513.071C1019.93 513.072 1019.48 513.521 1019.48 514.073 1019.48 514.626 1019.93 515.072 1020.48 515.071L1030.78 515.02C1031.34 515.02 1031.78 514.572 1031.78 514.02L1031.73 503.738C1031.75 503.207 1031.34 502.759 1030.81 502.738 1030.78 502.737 1030.76 502.737 1030.73 502.738 1030.18 502.738 1029.73 503.186 1029.73 503.738 1029.73 503.74 1029.73 503.741 1029.73 503.743L1029.77 511.354C1029.77 511.368 1029.76 511.371 1029.75 511.361 1020.52 501.516 1005.74 499.302 994.028 506.012 990.747 507.899 987.87 510.413 985.56 513.412 985.225 513.851 985.31 514.479 985.749 514.814 986.185 515.146 986.807 515.066 987.144 514.633 989.294 511.842 991.973 509.502 995.028 507.747 1006.05 501.433 1019.98 503.623 1028.53 513.014Z" fill="#000000" fill-rule="nonzero" fill-opacity="1"/></g></g></g></g></svg>