<svg width="40" height="40" viewBox="0 0 40 40" fill="none" xmlns="http://www.w3.org/2000/svg">
<path d="M14.5 4L14.5 6.5H25.5V4H26.5V6.5H31C31.8284 6.5 32.5 7.17157 32.5 8V21H31.5V8C31.5 7.72386 31.2761 7.5 31 7.5H26.5V9H25.5V7.5H14.5V9H13.5V7.5H10C9.72386 7.5 9.5 7.72386 9.5 8V34C9.5 34.2761 9.72386 34.5 10 34.5H20.5V35.5H10C9.17157 35.5 8.5 34.8284 8.5 34V8C8.5 7.17157 9.17157 6.5 10 6.5H13.5L13.5 4H14.5Z" fill="black"/>
<path d="M26.5 24H27.5V28.5H32V29.5H26.5V24Z" fill="black"/>
<path fill-rule="evenodd" clip-rule="evenodd" d="M20.5 29C20.5 25.4101 23.4101 22.5 27 22.5C30.5899 22.5 33.5 25.4101 33.5 29C33.5 32.5899 30.5899 35.5 27 35.5C23.4101 35.5 20.5 32.5899 20.5 29ZM27 23.5C23.9624 23.5 21.5 25.9624 21.5 29C21.5 32.0376 23.9624 34.5 27 34.5C30.0376 34.5 32.5 32.0376 32.5 29C32.5 25.9624 30.0376 23.5 27 23.5Z" fill="black"/>
<path d="M27 15.5H13V14.5H27V15.5Z" fill="black"/>
<path d="M13 22.5H20V21.5H13V22.5Z" fill="black"/>
</svg>
