<svg width="40" height="40" viewBox="0 0 40 40" fill="none" xmlns="http://www.w3.org/2000/svg">
<path d="M21.005 22.3201L20.858 22.1431H20.138L19.991 22.2661L18.803 28.7821L18.95 28.9591H19.67L19.817 28.8361L21.005 22.3201Z" fill="black"/>
<path d="M17.354 23.0431L17.141 22.9066L12.587 24.9856L12.5 25.1221V25.6621L12.587 25.7986L17.141 27.8776L17.354 27.7411V27.0211L17.2655 26.8846L13.9925 25.3921L17.2655 23.8996L17.354 23.7631V23.0431Z" fill="black"/>
<path d="M27.3905 24.9856L22.8365 22.9066L22.6235 23.0431V23.7631L22.712 23.8996L25.985 25.3921L22.712 26.8846L22.6235 27.0211V27.7411L22.8365 27.8776L27.3905 25.7986L27.4775 25.6621V25.1221L27.3905 24.9856Z" fill="black"/>
<path fill-rule="evenodd" clip-rule="evenodd" d="M14.5714 7.71436C13.743 7.71436 13.0714 8.38593 13.0714 9.21435V12H11.3571C10.5287 12 9.85712 12.6716 9.85712 13.5V17.3569H8.14288C7.31446 17.3569 6.64288 18.0285 6.64288 18.8569V31.8569C6.64288 32.6854 7.31446 33.3569 8.14288 33.3569H31.8572C32.6856 33.3569 33.3572 32.6854 33.3572 31.8569V18.8569C33.3572 18.0285 32.6856 17.3569 31.8572 17.3569H30.1428V13.5C30.1428 12.6716 29.4713 12 28.6428 12H26.9286V9.21436C26.9286 8.38593 26.257 7.71436 25.4286 7.71436H14.5714ZM25.9286 12V9.21436C25.9286 8.93821 25.7047 8.71436 25.4286 8.71436H14.5714C14.2953 8.71436 14.0714 8.93821 14.0714 9.21435V12H25.9286ZM29.1428 13.5V17.3569H10.8571V13.5C10.8571 13.2239 11.081 13 11.3571 13H28.6428C28.919 13 29.1428 13.2239 29.1428 13.5ZM7.64288 18.8569C7.64288 18.5808 7.86674 18.3569 8.14288 18.3569H31.8572C32.1333 18.3569 32.3572 18.5808 32.3572 18.8569V31.8569C32.3572 32.1331 32.1333 32.3569 31.8572 32.3569H8.14288C7.86674 32.3569 7.64288 32.1331 7.64288 31.8569V18.8569Z" fill="black"/>
</svg>
