<svg width="96" height="98" xmlns="http://www.w3.org/2000/svg" xmlns:xlink="http://www.w3.org/1999/xlink" overflow="hidden"><defs><clipPath id="clip0"><rect x="924" y="138" width="96" height="98"/></clipPath><clipPath id="clip1"><rect x="924" y="139" width="96" height="96"/></clipPath><clipPath id="clip2"><rect x="924" y="139" width="96" height="96"/></clipPath><clipPath id="clip3"><rect x="924" y="139" width="96" height="96"/></clipPath></defs><g clip-path="url(#clip0)" transform="translate(-924 -138)"><g clip-path="url(#clip1)"><g clip-path="url(#clip2)"><g clip-path="url(#clip3)"><path d="M950.9 193.25 935.987 196.624C934.821 196.9 933.618 196.343 933.073 195.276 932.459 194.213 932.639 192.87 933.511 192.007L949.377 176.14C950.172 175.401 951.312 175.166 952.334 175.529L956.504 177.188C956.804 176.599 957.131 176.006 957.457 175.414L953.04 173.658C951.299 173.025 949.351 173.425 948 174.693L932.1 190.593C930.585 192.078 930.265 194.399 931.323 196.238 932.113 197.745 933.673 198.69 935.374 198.693 935.729 198.692 936.082 198.653 936.428 198.576L950.497 195.393C950.613 194.706 950.746 194 950.9 193.25Z" fill="#000000" fill-rule="nonzero" fill-opacity="1"/><path d="M983.127 200.552C982.535 200.881 981.944 201.205 981.352 201.508L983.285 206.494C983.694 207.491 983.462 208.635 982.697 209.394L966.797 225.294C965.753 226.376 964.03 226.406 962.948 225.362 962.266 224.704 961.976 223.739 962.181 222.814L965.615 207.067C964.889 207.222 964.176 207.363 963.476 207.488L960.228 222.388C959.74 224.44 960.702 226.561 962.566 227.547 964.418 228.59 966.74 228.246 968.211 226.712L984.111 210.812C985.443 209.484 985.848 207.486 985.137 205.744Z" fill="#000000" fill-rule="nonzero" fill-opacity="1"/><path d="M1012.51 146.693C1011.16 145.346 1006.1 145.679 997.459 147.683 995.317 148.183 993.143 148.8 990.813 149.576L988.127 150.476C980.843 153.557 974.24 158.049 968.7 163.693 956.4 175.987 952.966 190.952 952.011 198.779L951.952 199.263 958.841 206.152 959.325 206.093C968.989 204.914 982.938 201.08 994.511 189.507 1000.17 184.001 1004.67 177.415 1007.74 170.137L1008.86 167.037C1009.37 165.615 1009.83 164.137 1010.23 162.651L1010.8 160.528C1013 152.443 1014.08 148.154 1012.51 146.693ZM1005.88 169.423C1002.91 176.438 998.564 182.786 993.1 188.093 982.12 199.073 968.9 202.838 959.568 204.047L954.061 198.539C955.061 190.849 958.491 176.73 970.114 165.107 975.449 159.665 981.806 155.329 988.82 152.349L991.446 151.474C992.307 151.187 993.146 150.928 993.964 150.684 996.725 152.268 999.269 154.205 1001.53 156.446 1003.91 158.837 1005.95 161.54 1007.6 164.481 1007.4 165.116 1007.19 165.746 1006.97 166.363ZM1008.88 160.004 1008.38 161.846C1006.81 159.391 1004.99 157.107 1002.95 155.032 1001.01 153.133 998.898 151.43 996.63 149.947 997.059 149.838 997.488 149.73 997.914 149.631 1006.38 147.667 1010.5 147.66 1011.11 148.118 1011.84 149.1 1010.12 155.4 1008.87 160Z" fill="#000000" fill-rule="nonzero" fill-opacity="1"/><path d="M954.69 205.218C954.3 205.013 953.935 204.766 953.6 204.481 953.288 204.138 953.017 203.759 952.793 203.352 952.346 202.612 951.839 201.773 950.822 201.652 949.888 201.544 948.922 202.072 947.497 203.496 945.433 205.56 938.246 214.59 940.797 217.31 941.23 217.724 941.815 217.941 942.413 217.91 943.646 217.91 945.355 217.261 947.573 215.957 950.122 214.45 952.487 212.652 954.621 210.6 956.035 209.144 956.582 208.121 956.45 207.179 956.306 206.147 955.448 205.654 954.69 205.218ZM953.2 209.193C949.488 212.905 943.283 216.449 942.256 215.943 941.715 214.82 945.347 208.474 948.914 204.907 949.36 204.369 949.915 203.931 950.543 203.623 950.757 203.852 950.938 204.109 951.084 204.386 951.392 204.937 951.766 205.448 952.2 205.907L952.223 205.93C952.672 206.328 953.167 206.671 953.697 206.952 953.969 207.094 954.228 207.259 954.472 207.445 954.469 207.463 954.457 207.894 953.2 209.193Z" fill="#000000" fill-rule="nonzero" fill-opacity="1"/><path d="M984.382 163.808C981.652 166.521 981.638 170.932 984.351 173.662 985.683 175.003 987.502 175.744 989.391 175.718 991.233 175.728 993.003 175.005 994.311 173.707 997.045 170.965 997.038 166.526 994.297 163.792 991.555 161.059 987.116 161.065 984.382 163.807ZM992.9 172.293C990.969 174.276 987.797 174.318 985.814 172.387 983.831 170.456 983.789 167.284 985.72 165.301 985.751 165.269 985.782 165.238 985.814 165.207 986.749 164.281 988.015 163.765 989.331 163.774 992.079 163.732 994.34 165.926 994.382 168.674 994.403 170.032 993.867 171.339 992.9 172.293Z" fill="#000000" fill-rule="nonzero" fill-opacity="1"/></g></g></g></g></svg>