<svg width="97" height="96" xmlns="http://www.w3.org/2000/svg" xmlns:xlink="http://www.w3.org/1999/xlink" overflow="hidden"><defs><clipPath id="clip0"><rect x="829" y="392" width="97" height="96"/></clipPath><clipPath id="clip1"><rect x="830" y="392" width="96" height="96"/></clipPath><clipPath id="clip2"><rect x="830" y="392" width="96" height="96"/></clipPath><clipPath id="clip3"><rect x="830" y="392" width="96" height="96"/></clipPath></defs><g clip-path="url(#clip0)" transform="translate(-829 -392)"><g clip-path="url(#clip1)"><g clip-path="url(#clip2)"><g clip-path="url(#clip3)"><path d="M920.166 414.655C921.277 413.723 921.667 412.184 921.133 410.835 920.618 409.499 919.337 408.613 917.904 408.605L909.704 408.605C909.075 408.614 908.519 408.196 908.353 407.589L905.663 399.514C905.209 398.092 903.896 397.12 902.404 397.102 900.912 397.088 899.59 398.059 899.156 399.486L896.446 407.617C896.249 408.194 895.714 408.588 895.104 408.605L886.902 408.605C885.483 408.655 884.223 409.526 883.674 410.835 883.108 412.179 883.5 413.735 884.635 414.651L887.549 417.263 891.303 420.507C891.509 420.69 891.66 420.927 891.739 421.192 891.793 421.48 891.791 421.775 891.732 422.062L889.045 430.524C888.587 431.926 889.097 433.462 890.303 434.312 891.485 435.138 893.039 435.206 894.289 434.486L901.604 429.31C902.095 428.976 902.742 428.982 903.226 429.326L910.449 434.444C911.024 434.836 911.703 435.048 912.399 435.054 913.164 435.049 913.906 434.788 914.505 434.311 915.661 433.429 916.16 431.928 915.763 430.529L913.253 421.993C913.088 421.442 913.249 420.846 913.669 420.454ZM911.345 422.591 913.846 431.099C914.008 431.703 913.789 432.345 913.29 432.722 912.804 433.132 912.102 433.162 911.582 432.796L904.404 427.71C903.823 427.281 903.119 427.052 902.396 427.056 901.688 427.05 900.997 427.274 900.426 427.694L893.274 432.76C892.7 433.068 892.003 433.037 891.458 432.679 890.96 432.328 890.755 431.689 890.956 431.113L893.656 422.611 893.683 422.504C893.808 421.913 893.808 421.303 893.683 420.712L893.632 420.536C893.429 419.918 893.057 419.368 892.557 418.951L888.871 415.762 885.903 413.106C885.456 412.749 885.299 412.14 885.516 411.611 885.749 411.04 886.286 410.65 886.902 410.605L895.103 410.605C896.586 410.59 897.893 409.63 898.351 408.22L901.061 400.089C901.234 399.494 901.784 399.089 902.403 399.101 903.023 399.121 903.564 399.528 903.755 400.118L906.445 408.192C906.874 409.631 908.202 410.614 909.704 410.605L917.904 410.605C918.532 410.615 919.087 411.018 919.29 411.612 919.489 412.168 919.31 412.789 918.846 413.153L912.352 418.949C911.329 419.858 910.934 421.284 911.345 422.591Z" fill="#000000" fill-rule="nonzero" fill-opacity="1"/><path d="M843.565 444.74C842.081 446.179 840.653 447.633 839.32 449.06 838.944 449.464 838.966 450.097 839.37 450.474 839.774 450.85 840.406 450.828 840.783 450.424 842.092 449.021 843.497 447.592 844.958 446.177 845.355 445.792 845.365 445.159 844.98 444.762 844.596 444.365 843.962 444.355 843.565 444.74Z" fill="#000000" fill-rule="nonzero" fill-opacity="1"/><path d="M848.667 442.377C848.911 442.377 849.147 442.288 849.33 442.125 856.753 435.516 864.91 429.78 873.641 425.03 874.127 424.767 874.308 424.16 874.045 423.674 873.782 423.188 873.175 423.007 872.69 423.27 863.824 428.093 855.541 433.917 848.004 440.628 847.591 440.995 847.552 441.627 847.918 442.04 848.108 442.254 848.381 442.377 848.667 442.377Z" fill="#000000" fill-rule="nonzero" fill-opacity="1"/><path d="M878.516 422.433C878.664 422.433 878.81 422.4 878.944 422.336 880.741 421.481 882.57 420.67 884.381 419.925 884.892 419.714 885.135 419.13 884.925 418.619 884.715 418.108 884.13 417.864 883.619 418.075 881.776 418.834 879.915 419.66 878.085 420.53 877.586 420.767 877.375 421.364 877.612 421.863 877.778 422.211 878.13 422.433 878.516 422.433Z" fill="#000000" fill-rule="nonzero" fill-opacity="1"/><path d="M885.543 425.111C876.586 429.846 868.436 435.97 861.396 443.256 861.008 443.649 861.013 444.283 861.406 444.671 861.799 445.059 862.432 445.055 862.82 444.662 869.711 437.526 877.689 431.528 886.457 426.889 886.954 426.647 887.16 426.049 886.919 425.552 886.677 425.056 886.078 424.849 885.582 425.091 885.569 425.097 885.556 425.104 885.543 425.111Z" fill="#000000" fill-rule="nonzero" fill-opacity="1"/><path d="M858.667 447.593C858.254 447.226 857.622 447.262 857.255 447.675 857.255 447.675 857.255 447.675 857.255 447.675 855.907 449.19 854.592 450.747 853.346 452.301 853 452.732 853.07 453.362 853.5 453.707 853.932 454.052 854.561 453.983 854.906 453.552 856.131 452.024 857.424 450.494 858.749 449.004 859.116 448.592 859.079 447.96 858.667 447.593Z" fill="#000000" fill-rule="nonzero" fill-opacity="1"/><path d="M872.572 447.444C866.077 455.16 860.356 463.495 855.49 472.329 855.207 472.804 855.363 473.417 855.838 473.7 856.312 473.982 856.926 473.827 857.208 473.352 857.218 473.336 857.227 473.32 857.236 473.303 862.037 464.587 867.681 456.363 874.088 448.75 874.448 448.332 874.401 447.7 873.983 447.339 873.564 446.979 872.933 447.026 872.572 447.444Z" fill="#000000" fill-rule="nonzero" fill-opacity="1"/><path d="M885.4 435.2C882.292 437.559 879.371 440.155 876.665 442.966 876.285 443.367 876.302 444 876.703 444.38 877.097 444.753 877.716 444.744 878.099 444.36 880.732 441.624 883.575 439.096 886.6 436.8 887.042 436.469 887.131 435.842 886.8 435.4 886.469 434.958 885.842 434.869 885.4 435.2Z" fill="#000000" fill-rule="nonzero" fill-opacity="1"/><path d="M853.985 477.228C853.494 476.977 852.892 477.172 852.641 477.664 852.641 477.664 852.641 477.664 852.641 477.665 851.758 479.4 851.294 480.405 851.294 480.405 851.051 480.901 851.256 481.5 851.752 481.743 852.247 481.986 852.846 481.781 853.09 481.285 853.096 481.272 853.102 481.259 853.108 481.245 853.113 481.235 853.566 480.257 854.424 478.573 854.674 478.08 854.478 477.478 853.985 477.228Z" fill="#000000" fill-rule="nonzero" fill-opacity="1"/><path d="M851.074 456.901C850.622 456.584 849.999 456.693 849.682 457.145 849.682 457.145 849.682 457.146 849.681 457.146 848.565 458.742 847.965 459.671 847.965 459.671 847.654 460.127 847.771 460.75 848.228 461.061 848.684 461.372 849.306 461.255 849.617 460.798 849.627 460.784 849.636 460.77 849.644 460.756 849.651 460.747 850.236 459.842 851.32 458.294 851.637 457.841 851.526 457.218 851.074 456.901Z" fill="#000000" fill-rule="nonzero" fill-opacity="1"/></g></g></g></g></svg>